<svg width="311" height="191" viewBox="0 0 311 191" fill="none" xmlns="http://www.w3.org/2000/svg">
<mask id="path-2-outside-1_437_107" maskUnits="userSpaceOnUse" x="22" y="13" width="269" height="164" fill="black">
<rect fill="white" x="22" y="13" width="269" height="164"/>
<path d="M43.959 173L92.4062 59.4551H23.7637V16.5938H149.125V55.9102L102.289 173H43.959ZM159.223 109.943V98.2344C159.223 72.4531 167.709 52.043 184.682 37.0039C201.726 21.9648 225.896 14.4453 257.191 14.4453H271.693V58.0586H259.447C244.193 58.0586 232.807 61.4245 225.287 68.1562C217.839 74.8164 214.115 89.6406 214.115 112.629V114.777C214.115 126.236 215.082 133.254 217.016 135.832C218.949 138.339 221.42 139.592 224.428 139.592C227.292 139.592 229.584 138.518 231.303 136.369C233.093 134.221 233.988 127.668 233.988 116.711C233.988 110.767 233.236 106.398 231.732 103.605C230.3 100.812 227.973 99.416 224.75 99.416C221.742 99.416 219.2 100.562 217.123 102.854C215.118 105.074 214.115 108.296 214.115 112.521L208.852 112.414C208.852 98.8789 212.79 88.6738 220.668 81.7988C228.617 74.9238 237.712 71.4863 247.953 71.4863C260.056 71.4863 269.939 75.4251 277.602 83.3027C285.264 91.1087 289.096 102.854 289.096 118.537C289.096 136.441 282.794 150.37 270.189 160.324C257.585 170.207 242.188 175.148 223.998 175.148C203.874 175.148 188.048 169.813 176.518 159.143C164.988 148.4 159.223 132.001 159.223 109.943Z"/>
</mask>
<path d="M43.959 173L43.0392 172.608L42.4451 174H43.959V173ZM92.4062 59.4551L93.326 59.8475L93.9202 58.4551H92.4062V59.4551ZM23.7637 59.4551H22.7637V60.4551H23.7637V59.4551ZM23.7637 16.5938V15.5938H22.7637V16.5938H23.7637ZM149.125 16.5938H150.125V15.5938H149.125V16.5938ZM149.125 55.9102L150.053 56.2815L150.125 56.1027V55.9102H149.125ZM102.289 173V174H102.966L103.218 173.371L102.289 173ZM44.8788 173.392L93.326 59.8475L91.4865 59.0626L43.0392 172.608L44.8788 173.392ZM92.4062 58.4551H23.7637V60.4551H92.4062V58.4551ZM24.7637 59.4551V16.5938H22.7637V59.4551H24.7637ZM23.7637 17.5938H149.125V15.5938H23.7637V17.5938ZM148.125 16.5938V55.9102H150.125V16.5938H148.125ZM148.197 55.5388L101.361 172.629L103.218 173.371L150.053 56.2815L148.197 55.5388ZM102.289 172H43.959V174H102.289V172ZM184.682 37.0039L184.02 36.2541L184.018 36.2555L184.682 37.0039ZM271.693 14.4453H272.693V13.4453H271.693V14.4453ZM271.693 58.0586V59.0586H272.693V58.0586H271.693ZM225.287 68.1562L225.954 68.9017L225.954 68.9013L225.287 68.1562ZM217.016 135.832L216.216 136.432L216.224 136.443L217.016 135.832ZM231.303 136.369L230.535 135.729L230.528 135.737L230.522 135.744L231.303 136.369ZM231.732 103.605L230.843 104.062L230.847 104.071L230.852 104.08L231.732 103.605ZM217.123 102.854L216.382 102.182L216.381 102.183L217.123 102.854ZM214.115 112.521L214.095 113.521L215.115 113.542V112.521H214.115ZM208.852 112.414H207.852V113.394L208.831 113.414L208.852 112.414ZM220.668 81.7988L220.014 81.0425L220.01 81.0454L220.668 81.7988ZM277.602 83.3027L276.885 84L276.888 84.0033L277.602 83.3027ZM270.189 160.324L270.806 161.111L270.809 161.109L270.189 160.324ZM176.518 159.143L175.836 159.874L175.838 159.877L176.518 159.143ZM160.223 109.943V98.2344H158.223V109.943H160.223ZM160.223 98.2344C160.223 72.6958 168.617 52.5746 185.345 37.7524L184.018 36.2555C166.801 51.5114 158.223 72.2104 158.223 98.2344H160.223ZM185.343 37.7537C202.146 22.9278 226.047 15.4453 257.191 15.4453V13.4453C225.744 13.4453 201.306 21.0018 184.02 36.2541L185.343 37.7537ZM257.191 15.4453H271.693V13.4453H257.191V15.4453ZM270.693 14.4453V58.0586H272.693V14.4453H270.693ZM271.693 57.0586H259.447V59.0586H271.693V57.0586ZM259.447 57.0586C244.069 57.0586 232.397 60.4489 224.62 67.4112L225.954 68.9013C233.216 62.4001 244.317 59.0586 259.447 59.0586V57.0586ZM224.621 67.4108C220.688 70.9274 217.825 76.5157 215.938 84.0259C214.049 91.5468 213.115 101.089 213.115 112.629H215.115C215.115 101.18 216.043 91.8164 217.878 84.5132C219.715 77.1991 222.438 72.0452 225.954 68.9017L224.621 67.4108ZM213.115 112.629V114.777H215.115V112.629H213.115ZM213.115 114.777C213.115 120.528 213.357 125.198 213.85 128.771C214.335 132.292 215.082 134.921 216.216 136.432L217.816 135.232C217.016 134.165 216.313 131.996 215.831 128.498C215.356 125.053 215.115 120.485 215.115 114.777H213.115ZM216.224 136.443C218.335 139.18 221.092 140.592 224.428 140.592V138.592C221.748 138.592 219.563 137.497 217.807 135.221L216.224 136.443ZM224.428 140.592C227.582 140.592 230.166 139.391 232.084 136.994L230.522 135.744C229.002 137.645 227.003 138.592 224.428 138.592V140.592ZM232.071 137.009C232.64 136.327 233.08 135.371 233.433 134.227C233.79 133.07 234.08 131.649 234.308 129.979C234.764 126.638 234.988 122.209 234.988 116.711H232.988C232.988 122.169 232.765 126.496 232.326 129.708C232.107 131.314 231.836 132.619 231.522 133.637C231.204 134.668 230.861 135.337 230.535 135.729L232.071 137.009ZM234.988 116.711C234.988 110.722 234.238 106.149 232.613 103.131L230.852 104.08C232.235 106.648 232.988 110.811 232.988 116.711H234.988ZM232.622 103.149C231.834 101.613 230.775 100.414 229.427 99.6059C228.081 98.7982 226.508 98.416 224.75 98.416V100.416C226.214 100.416 227.417 100.732 228.398 101.321C229.378 101.909 230.198 102.805 230.843 104.062L232.622 103.149ZM224.75 98.416C221.451 98.416 218.642 99.6879 216.382 102.182L217.864 103.525C219.757 101.436 222.033 100.416 224.75 100.416V98.416ZM216.381 102.183C214.152 104.651 213.115 108.15 213.115 112.521H215.115C215.115 108.442 216.083 105.496 217.865 103.524L216.381 102.183ZM214.136 111.522L208.872 111.414L208.831 113.414L214.095 113.521L214.136 111.522ZM209.852 112.414C209.852 99.0769 213.726 89.1849 221.326 82.5523L220.01 81.0454C211.855 88.1628 207.852 98.6809 207.852 112.414H209.852ZM221.322 82.5552C229.095 75.8328 237.959 72.4863 247.953 72.4863V70.4863C237.465 70.4863 228.14 74.0148 220.014 81.0425L221.322 82.5552ZM247.953 72.4863C259.816 72.4863 269.43 76.3365 276.885 84L278.318 82.6055C270.447 74.5137 260.296 70.4863 247.953 70.4863V72.4863ZM276.888 84.0033C284.3 91.5542 288.096 103.002 288.096 118.537H290.096C290.096 102.706 286.228 90.6632 278.315 82.6022L276.888 84.0033ZM288.096 118.537C288.096 136.175 281.904 149.798 269.57 159.539L270.809 161.109C283.683 150.941 290.096 136.707 290.096 118.537H288.096ZM269.572 159.537C257.168 169.264 241.996 174.148 223.998 174.148V176.148C242.38 176.148 258.003 171.15 270.806 161.111L269.572 159.537ZM223.998 174.148C204.053 174.148 188.494 168.864 177.197 158.409L175.838 159.877C187.601 170.762 203.696 176.148 223.998 176.148V174.148ZM177.199 158.411C165.943 147.924 160.223 131.837 160.223 109.943H158.223C158.223 132.164 164.032 148.877 175.836 159.874L177.199 158.411Z" fill="#C6BEA4" mask="url(#path-2-outside-1_437_107)"/>
</svg>
