<svg width="311" height="191" viewBox="0 0 311 191" fill="none" xmlns="http://www.w3.org/2000/svg">
<mask id="path-2-outside-1_437_107" maskUnits="userSpaceOnUse" x="20" y="11" width="273" height="168" fill="black">
<rect fill="white" x="20" y="11" width="273" height="168"/>
<path d="M43.959 173L92.4062 59.4551H23.7637V16.5938H149.125V55.9102L102.289 173H43.959ZM159.223 109.943V98.2344C159.223 72.4531 167.709 52.043 184.682 37.0039C201.726 21.9648 225.896 14.4453 257.191 14.4453H271.693V58.0586H259.447C244.193 58.0586 232.807 61.4245 225.287 68.1562C217.839 74.8164 214.115 89.6406 214.115 112.629V114.777C214.115 126.236 215.082 133.254 217.016 135.832C218.949 138.339 221.42 139.592 224.428 139.592C227.292 139.592 229.584 138.518 231.303 136.369C233.093 134.221 233.988 127.668 233.988 116.711C233.988 110.767 233.236 106.398 231.732 103.605C230.3 100.812 227.973 99.416 224.75 99.416C221.742 99.416 219.2 100.562 217.123 102.854C215.118 105.074 214.115 108.296 214.115 112.521L208.852 112.414C208.852 98.8789 212.79 88.6738 220.668 81.7988C228.617 74.9238 237.712 71.4863 247.953 71.4863C260.056 71.4863 269.939 75.4251 277.602 83.3027C285.264 91.1087 289.096 102.854 289.096 118.537C289.096 136.441 282.794 150.37 270.189 160.324C257.585 170.207 242.188 175.148 223.998 175.148C203.874 175.148 188.048 169.813 176.518 159.143C164.988 148.4 159.223 132.001 159.223 109.943Z"/>
</mask>
<path d="M43.959 173L41.1997 171.823L39.4173 176H43.959V173ZM92.4062 59.4551L95.1656 60.6324L96.948 56.4551H92.4062V59.4551ZM23.7637 59.4551H20.7637V62.4551H23.7637V59.4551ZM23.7637 16.5938V13.5938H20.7637V16.5938H23.7637ZM149.125 16.5938H152.125V13.5938H149.125V16.5938ZM149.125 55.9102L151.91 57.0243L152.125 56.4879V55.9102H149.125ZM102.289 173V176H104.32L105.074 174.114L102.289 173ZM46.7183 174.177L95.1656 60.6324L89.6469 58.2777L41.1997 171.823L46.7183 174.177ZM92.4062 56.4551H23.7637V62.4551H92.4062V56.4551ZM26.7637 59.4551V16.5938H20.7637V59.4551H26.7637ZM23.7637 19.5938H149.125V13.5938H23.7637V19.5938ZM146.125 16.5938V55.9102H152.125V16.5938H146.125ZM146.34 54.796L99.5036 171.886L105.074 174.114L151.91 57.0243L146.34 54.796ZM102.289 170H43.959V176H102.289V170ZM184.682 37.0039L182.697 34.7544L182.692 34.7585L184.682 37.0039ZM271.693 14.4453H274.693V11.4453H271.693V14.4453ZM271.693 58.0586V61.0586H274.693V58.0586H271.693ZM225.287 68.1562L227.287 70.3925L227.288 70.3914L225.287 68.1562ZM217.016 135.832L214.616 137.632L214.628 137.648L214.64 137.664L217.016 135.832ZM231.303 136.369L228.998 134.449L228.979 134.472L228.96 134.495L231.303 136.369ZM231.732 103.605L229.063 104.974L229.077 105.001L229.091 105.028L231.732 103.605ZM217.123 102.854L214.9 100.839L214.897 100.843L217.123 102.854ZM214.115 112.521L214.054 115.521L217.115 115.583V112.521H214.115ZM208.852 112.414H205.852V115.353L208.79 115.413L208.852 112.414ZM220.668 81.7988L218.705 79.5297L218.695 79.5386L220.668 81.7988ZM277.602 83.3027L275.451 85.3945L275.461 85.4043L277.602 83.3027ZM270.189 160.324L272.041 162.685L272.049 162.679L270.189 160.324ZM176.518 159.143L174.473 161.338L174.48 161.344L176.518 159.143ZM162.223 109.943V98.2344H156.223V109.943H162.223ZM162.223 98.2344C162.223 73.1812 170.433 53.6378 186.671 39.2493L182.692 34.7585C164.985 50.4481 156.223 71.725 156.223 98.2344H162.223ZM186.667 39.2534C202.986 24.8539 226.351 17.4453 257.191 17.4453V11.4453C225.441 11.4453 200.466 19.0758 182.697 34.7544L186.667 39.2534ZM257.191 17.4453H271.693V11.4453H257.191V17.4453ZM268.693 14.4453V58.0586H274.693V14.4453H268.693ZM271.693 55.0586H259.447V61.0586H271.693V55.0586ZM259.447 55.0586C243.821 55.0586 231.578 58.4977 223.286 65.9211L227.288 70.3914C234.035 64.3513 244.566 61.0586 259.447 61.0586V55.0586ZM223.287 65.92C218.938 69.8097 215.934 75.8323 213.999 83.5386C212.055 91.2772 211.115 100.999 211.115 112.629H217.115C217.115 101.271 218.038 92.0861 219.818 85.0004C221.606 77.8825 224.189 73.163 227.287 70.3925L223.287 65.92ZM211.115 112.629V114.777H217.115V112.629H211.115ZM211.115 114.777C211.115 120.571 211.359 125.343 211.868 129.044C212.357 132.589 213.149 135.676 214.616 137.632L219.416 134.032C218.949 133.41 218.291 131.699 217.812 128.225C217.355 124.909 217.115 120.442 217.115 114.777H211.115ZM214.64 137.664C217.107 140.862 220.435 142.592 224.428 142.592V136.592C222.405 136.592 220.791 135.815 219.391 134L214.64 137.664ZM224.428 142.592C228.16 142.592 231.331 141.137 233.645 138.243L228.96 134.495C227.837 135.899 226.424 136.592 224.428 136.592V142.592ZM233.607 138.29C234.419 137.316 234.956 136.075 235.344 134.817C235.744 133.52 236.052 131.984 236.289 130.249C236.763 126.78 236.988 122.25 236.988 116.711H230.988C230.988 122.129 230.766 126.354 230.345 129.437C230.134 130.979 229.882 132.169 229.611 133.047C229.328 133.965 229.082 134.348 228.998 134.449L233.607 138.29ZM236.988 116.711C236.988 110.634 236.24 105.649 234.374 102.183L229.091 105.028C230.233 107.148 230.988 110.9 230.988 116.711H236.988ZM234.402 102.237C233.471 100.421 232.171 98.9201 230.456 97.8909C228.745 96.8644 226.802 96.416 224.75 96.416V102.416C225.92 102.416 226.752 102.666 227.369 103.036C227.981 103.403 228.562 103.997 229.063 104.974L234.402 102.237ZM224.75 96.416C220.869 96.416 217.527 97.9399 214.9 100.839L219.346 104.868C220.872 103.184 222.616 102.416 224.75 102.416V96.416ZM214.897 100.843C212.221 103.805 211.115 107.859 211.115 112.521H217.115C217.115 108.734 218.015 106.342 219.349 104.864L214.897 100.843ZM214.176 109.522L208.913 109.415L208.79 115.413L214.054 115.521L214.176 109.522ZM211.852 112.414C211.852 99.473 215.596 90.2069 222.641 84.0591L218.695 79.5386C209.985 87.1408 205.852 98.2848 205.852 112.414H211.852ZM222.63 84.0679C230.05 77.6508 238.453 74.4863 247.953 74.4863V68.4863C236.971 68.4863 227.184 72.1968 218.706 79.5297L222.63 84.0679ZM247.953 74.4863C259.336 74.4863 268.413 78.1594 275.451 85.3945L279.752 81.2109C271.464 72.6909 260.776 68.4863 247.953 68.4863V74.4863ZM275.461 85.4043C282.372 92.4452 286.096 103.298 286.096 118.537H292.096C292.096 102.409 288.156 89.7722 279.742 81.2011L275.461 85.4043ZM286.096 118.537C286.096 135.643 280.125 148.655 268.33 157.97L272.049 162.679C285.463 152.085 292.096 137.239 292.096 118.537H286.096ZM268.338 157.963C256.333 167.377 241.613 172.148 223.998 172.148V178.148C242.764 178.148 258.837 173.037 272.041 162.685L268.338 157.963ZM223.998 172.148C204.41 172.148 189.388 166.966 178.555 156.941L174.48 161.344C186.707 172.66 203.339 178.148 223.998 178.148V172.148ZM178.563 156.948C167.853 146.97 162.223 131.51 162.223 109.943H156.223C156.223 132.492 162.122 149.831 174.473 161.338L178.563 156.948Z" fill="#A092B2" mask="url(#path-2-outside-1_437_107)"/>
</svg>
